<?xml version="1.0" encoding="UTF-8" standalone="no"?>
<!DOCTYPE svg PUBLIC "-//W3C//DTD SVG 1.1//EN"
 "http://www.w3.org/Graphics/SVG/1.1/DTD/svg11.dtd">
<!-- Generated by graphviz version 2.38.0 (20140413.2041)
 -->
<!-- Title: flow Pages: 1 -->
<svg width="581pt" height="395pt"
 viewBox="0.00 0.00 581.00 395.00" xmlns="http://www.w3.org/2000/svg" xmlns:xlink="http://www.w3.org/1999/xlink">
<g id="graph0" class="graph" transform="scale(1 1) rotate(0) translate(4 391)">
<title>flow</title>
<polygon fill="white" stroke="none" points="-4,4 -4,-391 577,-391 577,4 -4,4"/>
<g id="clust1" class="cluster"><title>cluster_controller</title>
<polygon fill="none" stroke="black" stroke-dasharray="5,2" points="163,-140 163,-379 393,-379 393,-140 163,-140"/>
<text text-anchor="middle" x="278" y="-363.8" font-family="Times,serif" font-size="14.00">alia controller function</text>
</g>
<!-- state -->
<g id="node1" class="node"><title>state</title>
<polygon fill="none" stroke="#424242" points="90,-269 0,-269 0,-231 96,-231 96,-263 90,-269"/>
<polyline fill="none" stroke="#424242" points="90,-269 90,-263 "/>
<polyline fill="none" stroke="#424242" points="96,-263 90,-263 "/>
<text text-anchor="middle" x="48" y="-253.8" font-family="Times,serif" font-size="14.00" fill="#242424">application</text>
<text text-anchor="middle" x="48" y="-238.8" font-family="Times,serif" font-size="14.00" fill="#242424">state</text>
</g>
<!-- ui_code -->
<g id="node2" class="node"><title>ui_code</title>
<polygon fill="none" stroke="#424242" points="278,-348 171,-295 278,-242 385,-295 278,-348"/>
<text text-anchor="middle" x="278" y="-306.3" font-family="Times,serif" font-size="14.00" fill="#242424">declarative</text>
<text text-anchor="middle" x="278" y="-291.3" font-family="Times,serif" font-size="14.00" fill="#242424">UI</text>
<text text-anchor="middle" x="278" y="-276.3" font-family="Times,serif" font-size="14.00" fill="#242424">specification</text>
</g>
<!-- state&#45;&gt;ui_code -->
<g id="edge1" class="edge"><title>state&#45;&gt;ui_code</title>
<path fill="none" stroke="#424242" d="M96.2417,-259.324C123.666,-264.737 159.048,-271.72 191.227,-278.071"/>
<polygon fill="#424242" stroke="#424242" points="190.611,-281.517 201.099,-280.02 191.966,-274.649 190.611,-281.517"/>
<text text-anchor="middle" x="133.5" y="-287.8" font-family="Times,serif" font-size="14.00">feeds</text>
<text text-anchor="middle" x="133.5" y="-272.8" font-family="Times,serif" font-size="14.00">into</text>
</g>
<!-- ui -->
<g id="node4" class="node"><title>ui</title>
<polygon fill="none" stroke="#424242" points="573,-287 492,-287 492,-283 488,-283 488,-279 492,-279 492,-257 488,-257 488,-253 492,-253 492,-249 573,-249 573,-287"/>
<polyline fill="none" stroke="#424242" points="492,-283 496,-283 496,-279 492,-279 "/>
<polyline fill="none" stroke="#424242" points="492,-257 496,-257 496,-253 492,-253 "/>
<text text-anchor="middle" x="532.5" y="-271.8" font-family="Times,serif" font-size="14.00" fill="#242424">user</text>
<text text-anchor="middle" x="532.5" y="-256.8" font-family="Times,serif" font-size="14.00" fill="#242424">interface</text>
</g>
<!-- ui_code&#45;&gt;ui -->
<g id="edge2" class="edge"><title>ui_code&#45;&gt;ui</title>
<path fill="none" stroke="#424242" d="M366.25,-285.67C404.838,-281.544 448.816,-276.841 481.697,-273.325"/>
<polygon fill="#424242" stroke="#424242" points="482.391,-276.771 491.962,-272.228 481.647,-269.811 482.391,-276.771"/>
<text text-anchor="middle" x="438.5" y="-299.8" font-family="Times,serif" font-size="14.00">produces/</text>
<text text-anchor="middle" x="438.5" y="-284.8" font-family="Times,serif" font-size="14.00">updates</text>
</g>
<!-- event_handler -->
<g id="node3" class="node"><title>event_handler</title>
<polygon fill="none" stroke="#424242" points="278,-224 207,-186 278,-148 349,-186 278,-224"/>
<text text-anchor="middle" x="278" y="-189.8" font-family="Times,serif" font-size="14.00" fill="#242424">event</text>
<text text-anchor="middle" x="278" y="-174.8" font-family="Times,serif" font-size="14.00" fill="#242424">handler</text>
</g>
<!-- event_handler&#45;&gt;state -->
<g id="edge5" class="edge"><title>event_handler&#45;&gt;state</title>
<path fill="none" stroke="#424242" stroke-dasharray="5,2" d="M230.987,-198.916C195.027,-209.01 144.846,-223.096 106.283,-233.921"/>
<polygon fill="#424242" stroke="#424242" points="104.924,-230.667 96.2417,-236.739 106.816,-237.406 104.924,-230.667"/>
<text text-anchor="middle" x="134.97" y="-206.528" font-family="Times,serif" font-size="14.00">(maybe)</text>
<text text-anchor="middle" x="134.97" y="-191.528" font-family="Times,serif" font-size="14.00">updates</text>
</g>
<!-- effects -->
<g id="node6" class="node"><title>effects</title>
<polygon fill="none" stroke="#424242" points="356.587,-76 231.573,-76 199.413,-3.55271e-14 324.427,-1.42109e-14 356.587,-76"/>
<text text-anchor="middle" x="278" y="-41.8" font-family="Times,serif" font-size="14.00" fill="#242424">external</text>
<text text-anchor="middle" x="278" y="-26.8" font-family="Times,serif" font-size="14.00" fill="#242424">effects</text>
</g>
<!-- event_handler&#45;&gt;effects -->
<g id="edge6" class="edge"><title>event_handler&#45;&gt;effects</title>
<path fill="none" stroke="#424242" stroke-dasharray="5,2" d="M278,-147.812C278,-127.286 278,-106.759 278,-86.2329"/>
<polygon fill="#424242" stroke="#424242" points="281.5,-86.1562 278,-76.1562 274.5,-86.1563 281.5,-86.1562"/>
<text text-anchor="middle" x="311.5" y="-119.512" font-family="Times,serif" font-size="14.00">(maybe)</text>
<text text-anchor="middle" x="311.5" y="-104.512" font-family="Times,serif" font-size="14.00">produces</text>
</g>
<!-- event -->
<g id="node5" class="node"><title>event</title>
<polygon fill="none" stroke="#424242" points="554.5,-204 504.5,-204 504.5,-168 560.5,-168 560.5,-198 554.5,-204"/>
<polyline fill="none" stroke="#424242" points="554.5,-204 554.5,-198 "/>
<polyline fill="none" stroke="#424242" points="560.5,-198 554.5,-198 "/>
<text text-anchor="middle" x="532.5" y="-182.3" font-family="Times,serif" font-size="14.00" fill="#242424">event</text>
</g>
<!-- ui&#45;&gt;event -->
<g id="edge3" class="edge"><title>ui&#45;&gt;event</title>
<path fill="none" stroke="#424242" d="M532.5,-248.998C532.5,-238.669 532.5,-225.695 532.5,-214.21"/>
<polygon fill="#424242" stroke="#424242" points="536,-214.198 532.5,-204.198 529,-214.198 536,-214.198"/>
<text text-anchor="middle" x="522" y="-222.8" font-family="Times,serif" font-size="14.00">generates &#160;&#160;&#160;&#160;&#160;&#160;&#160;&#160;&#160;&#160;&#160;</text>
</g>
<!-- event&#45;&gt;event_handler -->
<g id="edge4" class="edge"><title>event&#45;&gt;event_handler</title>
<path fill="none" stroke="#424242" d="M504.223,-186C469.744,-186 408.885,-186 359.116,-186"/>
<polygon fill="#424242" stroke="#424242" points="359,-182.5 349,-186 359,-189.5 359,-182.5"/>
<text text-anchor="middle" x="416.288" y="-170.505" font-family="Times,serif" font-size="14.00">feeds</text>
<text text-anchor="middle" x="416.288" y="-155.505" font-family="Times,serif" font-size="14.00">into</text>
</g>
<!-- event&#45;&gt;effects -->
</g>
</svg>
