<?xml version="1.0" encoding="UTF-8" standalone="no"?>
<!DOCTYPE svg PUBLIC "-//W3C//DTD SVG 1.1//EN"
 "http://www.w3.org/Graphics/SVG/1.1/DTD/svg11.dtd">
<!-- Generated by graphviz version 2.38.0 (20140413.2041)
 -->
<!-- Title: flow Pages: 1 -->
<svg width="337pt" height="305pt"
 viewBox="0.00 0.00 336.50 305.00" xmlns="http://www.w3.org/2000/svg" xmlns:xlink="http://www.w3.org/1999/xlink">
<g id="graph0" class="graph" transform="scale(1 1) rotate(0) translate(4 301)">
<title>flow</title>
<polygon fill="white" stroke="none" points="-4,4 -4,-301 332.5,-301 332.5,4 -4,4"/>
<!-- a -->
<g id="node1" class="node"><title>a</title>
<polygon fill="none" stroke="#242424" points="149,-297 42,-297 42,-261 149,-261 149,-297"/>
<text text-anchor="middle" x="95.5" y="-275.3" font-family="Times,serif" font-size="14.00" fill="#242424">input widget</text>
</g>
<!-- b -->
<g id="node2" class="node"><title>b</title>
<polygon fill="none" stroke="#242424" points="191,-210 0,-210 0,-174 191,-174 191,-210"/>
<text text-anchor="middle" x="95.5" y="-188.3" font-family="Times,serif" font-size="14.00" fill="#242424">database query function</text>
</g>
<!-- a&#45;&gt;b -->
<g id="edge1" class="edge"><title>a&#45;&gt;b</title>
<path fill="none" stroke="#242424" d="M95.5,-260.799C95.5,-249.163 95.5,-233.548 95.5,-220.237"/>
<polygon fill="#242424" stroke="#242424" points="99.0001,-220.175 95.5,-210.175 92.0001,-220.175 99.0001,-220.175"/>
<text text-anchor="middle" x="133.5" y="-231.8" font-family="Times,serif" font-size="14.00">dataset ID</text>
</g>
<!-- d -->
<g id="node3" class="node"><title>d</title>
<polygon fill="none" stroke="#242424" points="228.5,-123 174.5,-123 174.5,-87 228.5,-87 228.5,-123"/>
<text text-anchor="middle" x="201.5" y="-101.3" font-family="Times,serif" font-size="14.00" fill="#242424">filter</text>
</g>
<!-- b&#45;&gt;d -->
<g id="edge2" class="edge"><title>b&#45;&gt;d</title>
<path fill="none" stroke="#242424" d="M116.951,-173.799C132.755,-161.126 154.444,-143.734 171.898,-129.738"/>
<polygon fill="#242424" stroke="#242424" points="174.469,-132.162 180.081,-123.175 170.09,-126.701 174.469,-132.162"/>
<text text-anchor="middle" x="182.5" y="-144.8" font-family="Times,serif" font-size="14.00">dataset</text>
</g>
<!-- e -->
<g id="node5" class="node"><title>e</title>
<polygon fill="none" stroke="#242424" points="262,-36 141,-36 141,-0 262,-0 262,-36"/>
<text text-anchor="middle" x="201.5" y="-14.3" font-family="Times,serif" font-size="14.00" fill="#242424">display widget</text>
</g>
<!-- d&#45;&gt;e -->
<g id="edge4" class="edge"><title>d&#45;&gt;e</title>
<path fill="none" stroke="#242424" d="M201.5,-86.799C201.5,-75.1626 201.5,-59.5479 201.5,-46.2368"/>
<polygon fill="#242424" stroke="#242424" points="205,-46.1754 201.5,-36.1754 198,-46.1755 205,-46.1754"/>
<text text-anchor="middle" x="256.5" y="-57.8" font-family="Times,serif" font-size="14.00">filtered dataset</text>
</g>
<!-- c -->
<g id="node4" class="node"><title>c</title>
<polygon fill="none" stroke="#242424" points="316,-210 209,-210 209,-174 316,-174 316,-210"/>
<text text-anchor="middle" x="262.5" y="-188.3" font-family="Times,serif" font-size="14.00" fill="#242424">input widget</text>
</g>
<!-- c&#45;&gt;d -->
<g id="edge3" class="edge"><title>c&#45;&gt;d</title>
<path fill="none" stroke="#242424" d="M250.156,-173.799C241.474,-161.702 229.707,-145.305 219.919,-131.667"/>
<polygon fill="#242424" stroke="#242424" points="222.5,-129.259 213.826,-123.175 216.813,-133.341 222.5,-129.259"/>
<text text-anchor="middle" x="282" y="-144.8" font-family="Times,serif" font-size="14.00">filter criteria</text>
</g>
</g>
</svg>
