<?xml version="1.0" encoding="UTF-8" standalone="no"?>
<!DOCTYPE svg PUBLIC "-//W3C//DTD SVG 1.1//EN"
 "http://www.w3.org/Graphics/SVG/1.1/DTD/svg11.dtd">
<!-- Generated by graphviz version 2.38.0 (20140413.2041)
 -->
<!-- Title: flow Pages: 1 -->
<svg width="90pt" height="332pt"
 viewBox="0.00 0.00 90.00 332.00" xmlns="http://www.w3.org/2000/svg" xmlns:xlink="http://www.w3.org/1999/xlink">
<g id="graph0" class="graph" transform="scale(1 1) rotate(0) translate(4 328)">
<title>flow</title>
<polygon fill="white" stroke="none" points="-4,4 -4,-328 86,-328 86,4 -4,4"/>
<!-- a -->
<g id="node1" class="node"><title>a</title>
<ellipse fill="none" stroke="#242424" cx="27" cy="-306" rx="27" ry="18"/>
<text text-anchor="middle" x="27" y="-302.3" font-family="Times,serif" font-size="14.00" fill="#242424">a</text>
</g>
<!-- b -->
<g id="node2" class="node"><title>b</title>
<ellipse fill="none" stroke="#242424" cx="27" cy="-234" rx="27" ry="18"/>
<text text-anchor="middle" x="27" y="-230.3" font-family="Times,serif" font-size="14.00" fill="#242424">b</text>
</g>
<!-- a&#45;&gt;b -->
<g id="edge1" class="edge"><title>a&#45;&gt;b</title>
<path fill="none" stroke="#242424" d="M27,-287.697C27,-279.983 27,-270.712 27,-262.112"/>
<polygon fill="#242424" stroke="#242424" points="30.5001,-262.104 27,-252.104 23.5001,-262.104 30.5001,-262.104"/>
</g>
<!-- c -->
<g id="node3" class="node"><title>c</title>
<ellipse fill="none" stroke="#242424" cx="27" cy="-162" rx="27" ry="18"/>
<text text-anchor="middle" x="27" y="-158.3" font-family="Times,serif" font-size="14.00" fill="#242424">c</text>
</g>
<!-- b&#45;&gt;c -->
<g id="edge2" class="edge"><title>b&#45;&gt;c</title>
<path fill="none" stroke="#242424" d="M27,-215.697C27,-207.983 27,-198.712 27,-190.112"/>
<polygon fill="#242424" stroke="#242424" points="30.5001,-190.104 27,-180.104 23.5001,-190.104 30.5001,-190.104"/>
</g>
<!-- e -->
<g id="node4" class="node"><title>e</title>
<ellipse fill="none" stroke="#242424" cx="27" cy="-18" rx="27" ry="18"/>
<text text-anchor="middle" x="27" y="-14.3" font-family="Times,serif" font-size="14.00" fill="#242424">e</text>
</g>
<!-- c&#45;&gt;e -->
<g id="edge3" class="edge"><title>c&#45;&gt;e</title>
<path fill="none" stroke="#242424" d="M23.7517,-143.888C21.9542,-133.542 19.9053,-120.063 19,-108 17.8026,-92.0449 17.8026,-87.9551 19,-72 19.6366,-63.5179 20.8384,-54.3361 22.1208,-46.0356"/>
<polygon fill="#242424" stroke="#242424" points="25.5836,-46.5472 23.7517,-36.1119 18.6763,-45.412 25.5836,-46.5472"/>
</g>
<!-- d -->
<g id="node5" class="node"><title>d</title>
<ellipse fill="none" stroke="#242424" cx="55" cy="-90" rx="27" ry="18"/>
<text text-anchor="middle" x="55" y="-86.3" font-family="Times,serif" font-size="14.00" fill="#242424">d</text>
</g>
<!-- c&#45;&gt;d -->
<g id="edge4" class="edge"><title>c&#45;&gt;d</title>
<path fill="none" stroke="#242424" d="M33.6356,-144.411C36.9134,-136.216 40.9442,-126.14 44.6181,-116.955"/>
<polygon fill="#242424" stroke="#242424" points="47.9477,-118.055 48.412,-107.47 41.4484,-115.455 47.9477,-118.055"/>
</g>
<!-- d&#45;&gt;e -->
</g>
</svg>
